<?xml version="1.0" encoding="UTF-8"?>
<svg width="700pt" height="700pt" version="1.1" viewBox="0 0 700 700" xmlns="http://www.w3.org/2000/svg">
 <g fill-rule="evenodd">
  <path d="m148.74 437.52c-11.59 0.03125-22.695 4.6484-30.891 12.844-8.1953 8.1953-12.816 19.305-12.844 30.895 0.027344 11.59 4.6445 22.699 12.84 30.898 8.1953 8.1992 19.305 12.82 30.895 12.855 11.594-0.039063 22.699-4.6641 30.895-12.859 8.1992-8.1992 12.82-19.305 12.859-30.895-0.035156-11.594-4.6562-22.699-12.855-30.895-8.1953-8.1953-19.305-12.812-30.898-12.844zm0 17.512c14.602 0 26.258 11.609 26.258 26.227h0.003906c0.027344 6.9727-2.7266 13.668-7.6602 18.594-4.9297 4.9297-11.629 7.6836-18.602 7.6484-6.9648 0.03125-13.656-2.7266-18.582-7.6523-4.9258-4.9297-7.6797-11.625-7.6445-18.59 0-14.617 11.625-26.227 26.227-26.227zm122.53-17.512c-11.594 0.027344-22.707 4.6406-30.91 12.836-8.2031 8.1953-12.824 19.305-12.859 30.902 0.039063 11.594 4.6641 22.703 12.863 30.898 8.1992 8.1992 19.312 12.82 30.906 12.855 11.59-0.039063 22.691-4.6641 30.883-12.863 8.1914-8.1953 12.809-19.301 12.836-30.891-0.027344-11.59-4.6445-22.691-12.836-30.887-8.1914-8.1953-19.297-12.816-30.883-12.852zm0 17.512c14.602 0 26.227 11.609 26.227 26.227 0 14.602-11.625 26.242-26.227 26.242-6.9727 0.035156-13.668-2.7188-18.602-7.6484-4.9297-4.9258-7.6875-11.621-7.6562-18.594 0-14.617 11.656-26.227 26.258-26.227zm157.47-17.512c-11.586 0.035157-22.688 4.6562-30.883 12.852-8.1914 8.1953-12.805 19.297-12.836 30.887 0.03125 11.59 4.6445 22.695 12.836 30.891 8.1914 8.1992 19.293 12.824 30.883 12.863 11.598-0.035157 22.707-4.6562 30.906-12.855 8.1992-8.1953 12.824-19.305 12.863-30.898-0.035157-11.598-4.6562-22.707-12.859-30.902-8.2031-8.1953-19.312-12.809-30.91-12.836zm0 17.512c14.602 0 26.258 11.609 26.258 26.227h0.003906c0.027344 6.9727-2.7266 13.668-7.6602 18.594-4.9297 4.9297-11.629 7.6836-18.602 7.6484-6.9648 0.03125-13.656-2.7266-18.582-7.6523-4.9258-4.9297-7.6797-11.625-7.6445-18.59 0-14.617 11.625-26.227 26.227-26.227zm122.52-17.512c-11.59 0.03125-22.699 4.6484-30.895 12.844-8.1953 8.1953-12.812 19.305-12.844 30.895 0.03125 11.59 4.6484 22.699 12.844 30.898 8.1953 8.1992 19.301 12.82 30.895 12.855 11.59-0.039063 22.695-4.6641 30.895-12.859 8.1953-8.1992 12.82-19.305 12.859-30.895-0.035157-11.594-4.6562-22.699-12.855-30.895-8.1992-8.1953-19.309-12.812-30.898-12.844zm0 17.512c14.602 0 26.242 11.609 26.242 26.227 0.03125 6.9688-2.7266 13.66-7.6523 18.59-4.9297 4.9258-11.621 7.6836-18.59 7.6523-6.9688 0.03125-13.66-2.7266-18.586-7.6523-4.9258-4.9297-7.6758-11.625-7.6406-18.59 0-14.617 11.609-26.227 26.227-26.227zm-402.52-70.027c-4.8398 0-8.7617 3.9219-8.7617 8.7617v17.496c0 4.8398 3.9219 8.7617 8.7617 8.7617 4.8359-0.007813 8.75-3.9297 8.75-8.7617v-8.7656h105.04v8.7656c0 4.832 3.9141 8.7539 8.7461 8.7617 4.8203-0.027344 8.7148-3.9414 8.7148-8.7617v-17.496c0-4.8203-3.8945-8.7344-8.7148-8.7617zm280 0c-4.832 0.007813-8.7461 3.9297-8.7461 8.7617v17.496c0 4.8398 3.9219 8.7617 8.7656 8.7617 4.832-0.007813 8.7461-3.9297 8.7461-8.7617v-8.7656h105.02v8.7656c0 4.8281 3.9023 8.7461 8.7305 8.7617 4.832-0.007813 8.7461-3.9297 8.7461-8.7617v-17.496c0-4.8398-3.9219-8.7617-8.7656-8.7617zm-209.99-104.99c-11.59 0.039063-22.695 4.6641-30.895 12.859-8.1953 8.1953-12.816 19.305-12.855 30.895 0.03125 11.594 4.6562 22.699 12.852 30.895 8.1992 8.1953 19.309 12.812 30.898 12.844 11.598-0.027343 22.711-4.6406 30.91-12.836 8.2031-8.1992 12.828-19.309 12.863-30.902-0.039063-11.594-4.6641-22.703-12.867-30.898-8.1992-8.1992-19.309-12.82-30.906-12.855zm0 17.496c6.9766-0.035157 13.676 2.7188 18.609 7.6523 4.9297 4.9297 7.6875 11.633 7.6523 18.605 0 14.602-11.656 26.227-26.258 26.227h-0.003906c-6.9688 0.039062-13.668-2.7109-18.598-7.6367-4.9336-4.9258-7.6914-11.617-7.6602-18.59-0.035156-6.9727 2.7188-13.676 7.6523-18.605 4.9336-4.9336 11.633-7.6875 18.605-7.6523zm262.51-17.496c-11.594 0.039063-22.699 4.6641-30.895 12.859-8.1992 8.1953-12.82 19.305-12.859 30.895 0.035157 11.594 4.6562 22.699 12.855 30.895 8.1953 8.1953 19.305 12.812 30.898 12.844 11.594-0.027343 22.707-4.6406 30.91-12.836 8.1992-8.1992 12.824-19.309 12.859-30.902-0.039062-11.594-4.6641-22.703-12.863-30.898-8.2031-8.1992-19.312-12.82-30.906-12.855zm0 17.496c6.9727-0.035157 13.672 2.7188 18.605 7.6523 4.9336 4.9297 7.6875 11.633 7.6523 18.605 0 14.602-11.656 26.227-26.258 26.227-6.9727 0.039062-13.668-2.7109-18.602-7.6367-4.9297-4.9258-7.6875-11.617-7.6562-18.59-0.039062-6.9727 2.7188-13.676 7.6484-18.605 4.9336-4.9336 11.633-7.6875 18.609-7.6523zm-262.51-70.012c-4.8398 0-8.7617 3.9219-8.7617 8.7617v17.496c0.007812 4.832 3.9297 8.7461 8.7617 8.7461 4.8438 0 8.7656-3.9219 8.7656-8.7617v-8.7461h244.99v8.7656-0.003907c0.011719 4.832 3.9336 8.7461 8.7656 8.7461 4.8281-0.015625 8.7305-3.9336 8.7305-8.7617v-17.496c0-4.832-3.9141-8.7539-8.7461-8.7617zm105-69.996c-14.387 0-26.258 11.871-26.258 26.258v17.512c0.027344 4.8203 3.9414 8.7148 8.7617 8.7148h87.508c4.8203 0 8.7383-3.8945 8.7656-8.7148v-17.512c0-14.387-11.871-26.258-26.273-26.258zm0 17.512h52.5c4.9453 0 8.7656 3.8047 8.7656 8.7656v8.7461h-70.027v-8.7656c0-4.9258 3.8203-8.7461 8.7656-8.7461zm-17.512-140.01c-4.8398 0-8.7617 3.9219-8.7617 8.7617v52.469c0.03125 11.598 4.6562 22.711 12.855 30.91 8.2031 8.2031 19.316 12.824 30.914 12.859h17.512c11.594-0.039062 22.703-4.6641 30.898-12.863 8.1992-8.1992 12.82-19.312 12.852-30.906v-52.484c-0.007813-4.8281-3.918-8.7383-8.7461-8.7461zm8.7656 17.512h70.012v43.719c0.035156 6.9766-2.7188 13.676-7.6523 18.605-4.9336 4.9336-11.633 7.6875-18.605 7.6523h-17.512c-6.9766 0.035156-13.676-2.7188-18.609-7.6523-4.9297-4.9297-7.6875-11.629-7.6523-18.605z"/>
  <path d="m271.27 52.516c-4.8398 0-8.7656 3.9258-8.7656 8.7656v34.957c0.027344 11.594 4.6445 22.707 12.84 30.91 8.1953 8.1992 19.305 12.824 30.898 12.859h87.523c11.594-0.035156 22.703-4.6602 30.902-12.859 8.1953-8.2031 12.809-19.316 12.836-30.91v-34.973c0-4.8398-3.9258-8.7656-8.7656-8.7656h-34.973c-4.8398 0-8.7617 3.9258-8.7617 8.7656 0.027344 4.8203 3.9414 8.7148 8.7617 8.7148h26.227v26.258c0 14.602-11.625 26.258-26.227 26.258h-87.523c-6.9727 0.03125-13.668-2.7266-18.598-7.6562-4.9258-4.9336-7.6797-11.629-7.6445-18.602v-26.258h26.258c4.8203 0 8.7383-3.8945 8.7656-8.7148 0-4.8398-3.9258-8.7656-8.7656-8.7656z"/>
  <path d="m341.25 122.5c-4.8359 0.011718-8.75 3.9297-8.75 8.7656v35.008-0.003906c0.011719 4.8359 3.9297 8.75 8.7656 8.75 4.832-0.011719 8.7461-3.9297 8.7461-8.7656 0 4.8359 3.9141 8.7539 8.75 8.7656 4.8398 0 8.7617-3.9258 8.7617-8.7656v-34.988c-0.007813-4.8359-3.9297-8.75-8.7617-8.75z"/>
 </g>
</svg>
